<svg xmlns="http://www.w3.org/2000/svg" width="1200" height="675" viewBox="0 0 1200 675" role="img" aria-labelledby="title desc">
  <title id="title">Story panel and map screenshot placeholder</title>
  <desc id="desc">Placeholder for a screenshot showing the narrative panel beside the ArcGIS map.</desc>
  <rect width="1200" height="675" fill="#fbf8f2"/>
  <rect x="56" y="56" width="398" height="563" rx="18" fill="#ffffff" stroke="#d8d0c4"/>
  <rect x="506" y="56" width="638" height="563" rx="18" fill="#d9e5ec" stroke="#bccbd4"/>
  <rect x="104" y="126" width="160" height="18" rx="9" fill="#0079c1"/>
  <rect x="104" y="182" width="286" height="36" rx="12" fill="#17202a"/>
  <rect x="104" y="238" width="250" height="36" rx="12" fill="#17202a"/>
  <rect x="104" y="316" width="302" height="16" rx="8" fill="#9aa6af"/>
  <rect x="104" y="350" width="274" height="16" rx="8" fill="#9aa6af"/>
  <rect x="104" y="384" width="220" height="16" rx="8" fill="#9aa6af"/>
  <path d="M560 512 C650 390, 760 462, 842 338 S1000 304, 1088 180" fill="none" stroke="#0079c1" stroke-width="8" stroke-linecap="round"/>
  <path d="M560 248 L1088 520" fill="none" stroke="#17202a" stroke-width="5" stroke-linecap="round" opacity="0.28"/>
  <text x="602" y="112" fill="#394957" font-family="Arial, sans-serif" font-size="24">Story + map screenshot placeholder</text>
</svg>
